PathFileType	4	(X/Y/Z)	/tmp/tmpjnq7zxqp/Me/MarkerData/squat03_segment_0.trc
DataRate	CameraRate	NumFrames	NumMarkers	Units	OrigDataRate	OrigDataStartFrame	OrigNumFrames
100.201	100.201	8	38	m	100.201	436	499
Frame#	Time	C7			CLAV			LANK			LASI			LBHD			LELB			LFHD			LFIN			LFRM			LHEE			LKNE			LPSI			LSHO			LTHI			LTIB			LTOE			LUPA			LWRA			LWRB			RANK			RBAK			RBHD			RELB			RFHD			RFIN			RFRM			RHEE			RKNE			RPSI			RSHO			RTHI			RTIB			RTOE			RUPA			RWRA			RWRB			STRN			T10		
		X1	Y1	Z1	X2	Y2	Z2	X3	Y3	Z3	X4	Y4	Z4	X5	Y5	Z5	X6	Y6	Z6	X7	Y7	Z7	X8	Y8	Z8	X9	Y9	Z9	X10	Y10	Z10	X11	Y11	Z11	X12	Y12	Z12	X13	Y13	Z13	X14	Y14	Z14	X15	Y15	Z15	X16	Y16	Z16	X17	Y17	Z17	X18	Y18	Z18	X19	Y19	Z19	X20	Y20	Z20	X21	Y21	Z21	X22	Y22	Z22	X23	Y23	Z23	X24	Y24	Z24	X25	Y25	Z25	X26	Y26	Z26	X27	Y27	Z27	X28	Y28	Z28	X29	Y29	Z29	X30	Y30	Z30	X31	Y31	Z31	X32	Y32	Z32	X33	Y33	Z33	X34	Y34	Z34	X35	Y35	Z35	X36	Y36	Z36	X37	Y37	Z37	X38	Y38	Z38

437	4.35126	-0.142011	1.45751	-0.0108203	-0.319683	1.41054	-0.00636943	-0.181032	0.0939755	0.211612	-0.240971	0.994712	0.163376	-0.198179	1.61084	0.0763825	-0.255076	1.1124	0.2652	-0.297326	1.69452	0.0530957	-0.313058	0.792057	0.292672	-0.240806	0.954781	0.26285	-0.117677	0.0604807	0.151435	-0.244742	0.48221	0.200085	-0.108339	1.01118	0.0358002	-0.219583	1.45824	0.168443	-0.233104	0.669938	0.20769	-0.187759	0.245949	0.224296	-0.355111	0.0659977	0.187304	-0.259427	1.29727	0.258572	-0.317972	0.872011	0.226533	-0.254852	0.863398	0.265924	-0.176809	0.0991282	-0.189204	-0.114119	1.32435	-0.130992	-0.186145	1.60384	-0.0716283	-0.263089	1.11539	-0.275529	-0.286276	1.67806	-0.0752907	-0.383475	0.798114	-0.275034	-0.275548	1.027	-0.281859	-0.116097	0.0598951	-0.117351	-0.247929	0.499891	-0.176739	-0.109388	1.00942	-0.0262698	-0.231748	1.45574	-0.183645	-0.261101	0.832152	-0.18974	-0.192656	0.38361	-0.203047	-0.343417	0.0633827	-0.181845	-0.267237	1.21336	-0.260578	-0.332167	0.874627	-0.216945	-0.313048	0.861631	-0.285714	-0.371836	1.25212	0.00349489	-0.117748	1.22971	-0.000321945
438	4.36124	-0.143221	1.45737	-0.0104066	-0.320953	1.41037	-0.00635978	-0.180939	0.0938913	0.2117	-0.242531	0.994527	0.16364	-0.199268	1.61089	0.0764315	-0.253433	1.11182	0.265343	-0.298314	1.69458	0.0528693	-0.299203	0.790561	0.299022	-0.234183	0.955326	0.265073	-0.1178	0.0603544	0.151469	-0.242932	0.482058	0.199706	-0.110015	1.01112	0.03592	-0.220954	1.45774	0.168901	-0.232831	0.669815	0.207497	-0.186744	0.246007	0.224219	-0.355102	0.0659801	0.187393	-0.259927	1.29671	0.259084	-0.309363	0.869587	0.232284	-0.24444	0.863765	0.269173	-0.176742	0.099023	-0.189129	-0.114979	1.3234	-0.130187	-0.186973	1.60369	-0.071551	-0.260207	1.11447	-0.275961	-0.287081	1.67795	-0.0755173	-0.372814	0.793601	-0.283071	-0.271333	1.02616	-0.283297	-0.116124	0.0599063	-0.117342	-0.246606	0.499824	-0.176236	-0.111012	1.00937	-0.0262039	-0.232311	1.45511	-0.183639	-0.261666	0.832085	-0.189761	-0.19135	0.383862	-0.20252	-0.343518	0.0633345	-0.181834	-0.265621	1.21252	-0.260972	-0.32819	0.872252	-0.221812	-0.305257	0.86047	-0.289151	-0.372872	1.25172	0.00342994	-0.119283	1.22911	0.000164429
439	4.37122	-0.144452	1.45723	-0.00999159	-0.322278	1.41024	-0.00633549	-0.180891	0.0938301	0.211777	-0.244219	0.994374	0.163845	-0.20036	1.61092	0.0764203	-0.251471	1.11154	0.265824	-0.299327	1.69463	0.0526363	-0.286599	0.789803	0.304849	-0.227899	0.956306	0.267943	-0.117804	0.0603476	0.151488	-0.241213	0.481928	0.199271	-0.111711	1.01116	0.036002	-0.222426	1.45733	0.169288	-0.232547	0.669678	0.207342	-0.185876	0.246107	0.224059	-0.355102	0.0659675	0.187475	-0.260309	1.29632	0.259682	-0.300675	0.867828	0.237486	-0.234989	0.864551	0.273097	-0.176674	0.0988927	-0.189039	-0.115782	1.32266	-0.129354	-0.187807	1.60353	-0.0714715	-0.257152	1.11373	-0.276519	-0.287895	1.67784	-0.0757575	-0.362457	0.789968	-0.290598	-0.267047	1.02553	-0.284812	-0.116155	0.0599196	-0.117339	-0.245398	0.499766	-0.175687	-0.11259	1.00938	-0.0261289	-0.232938	1.45459	-0.183608	-0.26235	0.832017	-0.189647	-0.190274	0.38404	-0.20202	-0.343537	0.0632688	-0.181893	-0.263932	1.21184	-0.261475	-0.323942	0.870116	-0.226527	-0.297692	0.85967	-0.292784	-0.373975	1.25145	0.0033916	-0.120843	1.22866	0.000627745
440	4.3812	-0.14568	1.45707	-0.00958023	-0.323616	1.41015	-0.00628917	-0.180855	0.0937876	0.21183	-0.245938	0.994248	0.163996	-0.201497	1.61095	0.0763966	-0.249313	1.11162	0.26663	-0.300343	1.69469	0.0524111	-0.275166	0.789716	0.31011	-0.221868	0.957611	0.271016	-0.117693	0.0604641	0.151488	-0.239568	0.481816	0.198775	-0.113417	1.01128	0.0361055	-0.224005	1.45706	0.169601	-0.232413	0.669627	0.206909	-0.185104	0.246223	0.223872	-0.355112	0.0659592	0.187534	-0.260561	1.29612	0.260318	-0.29167	0.866564	0.24207	-0.226229	0.865524	0.27769	-0.176681	0.0989591	-0.189097	-0.116579	1.32211	-0.1285	-0.188623	1.60338	-0.0713919	-0.254011	1.11324	-0.277169	-0.288619	1.67773	-0.0758797	-0.352618	0.787216	-0.297536	-0.262703	1.02514	-0.286357	-0.116167	0.0599315	-0.117336	-0.244316	0.499728	-0.175197	-0.114149	1.00945	-0.0259992	-0.233494	1.45417	-0.183514	-0.26317	0.831933	-0.189375	-0.189295	0.384193	-0.20155	-0.343543	0.0632276	-0.18194	-0.26218	1.21139	-0.262164	-0.31931	0.868222	-0.23108	-0.29018	0.859275	-0.29682	-0.375219	1.25133	0.00336574	-0.122427	1.22836	0.00109233
441	4.39118	-0.146913	1.45692	-0.009153	-0.32495	1.41009	-0.00627778	-0.18081	0.0937587	0.211861	-0.247768	0.994173	0.164108	-0.202671	1.61099	0.0763936	-0.247054	1.11208	0.267794	-0.30135	1.69473	0.0522051	-0.264918	0.790121	0.314858	-0.216032	0.959176	0.274095	-0.117538	0.0606197	0.151483	-0.237951	0.48175	0.198186	-0.115124	1.01149	0.0362512	-0.225614	1.45695	0.169825	-0.232328	0.669536	0.20638	-0.184194	0.246376	0.223748	-0.355109	0.0659454	0.18757	-0.260693	1.29615	0.261029	-0.282789	0.865847	0.246061	-0.218047	0.866992	0.282388	-0.176634	0.0989531	-0.189116	-0.117336	1.32175	-0.127627	-0.189444	1.60324	-0.0712817	-0.250982	1.11301	-0.277824	-0.289253	1.67761	-0.0758849	-0.343453	0.785274	-0.303791	-0.258325	1.02502	-0.287916	-0.116166	0.059936	-0.117342	-0.243317	0.49973	-0.174709	-0.115728	1.00958	-0.0257884	-0.233991	1.45387	-0.183349	-0.263873	0.831861	-0.189245	-0.188357	0.384355	-0.201071	-0.343493	0.063195	-0.182055	-0.260335	1.21116	-0.262956	-0.314346	0.866669	-0.235617	-0.282807	0.859127	-0.300704	-0.37668	1.2514	0.00341009	-0.124003	1.22815	0.00156736
442	4.40116	-0.148157	1.45679	-0.00869602	-0.326312	1.41008	-0.00628613	-0.180741	0.093747	0.211863	-0.249608	0.994123	0.164106	-0.203671	1.611	0.0765982	-0.24455	1.11283	0.269524	-0.302355	1.69476	0.0519997	-0.255869	0.790896	0.319264	-0.21034	0.960993	0.277332	-0.117719	0.0604726	0.151506	-0.236415	0.481759	0.197509	-0.116875	1.01178	0.0364229	-0.227204	1.457	0.169968	-0.232213	0.669426	0.205712	-0.183275	0.246539	0.223539	-0.355099	0.0659384	0.187594	-0.260696	1.29646	0.261816	-0.274348	0.865666	0.249548	-0.210425	0.868897	0.286941	-0.176532	0.0987949	-0.189049	-0.118039	1.32158	-0.126727	-0.190247	1.60312	-0.0711391	-0.248124	1.1131	-0.278547	-0.289957	1.67753	-0.0759495	-0.334915	0.784043	-0.309479	-0.254001	1.0253	-0.289525	-0.116179	0.0599536	-0.117355	-0.242261	0.499721	-0.174058	-0.117374	1.00985	-0.025548	-0.234458	1.45368	-0.183107	-0.264656	0.831801	-0.189185	-0.187366	0.384571	-0.200586	-0.34334	0.0631372	-0.182313	-0.258531	1.21112	-0.263602	-0.309031	0.865527	-0.240056	-0.275643	0.859198	-0.304407	-0.378372	1.25161	0.00350074	-0.125584	1.22798	0.0020637
443	4.41114	-0.149379	1.45667	-0.00823269	-0.327648	1.41009	-0.00629485	-0.180655	0.0937331	0.211826	-0.251532	0.994072	0.164089	-0.204717	1.61102	0.0767697	-0.241926	1.11382	0.271559	-0.303356	1.69479	0.0518079	-0.247923	0.792267	0.323474	-0.204928	0.962911	0.280532	-0.117852	0.0603686	0.151507	-0.23497	0.481812	0.196763	-0.118684	1.01215	0.0366506	-0.228751	1.45721	0.170041	-0.231804	0.669393	0.204991	-0.182356	0.24674	0.223232	-0.355085	0.065933	0.187625	-0.260548	1.29707	0.262735	-0.266413	0.865941	0.252652	-0.203461	0.87106	0.291309	-0.176459	0.0987203	-0.189022	-0.118755	1.32157	-0.125858	-0.191004	1.60301	-0.0710079	-0.245364	1.11349	-0.279354	-0.290808	1.67747	-0.076233	-0.326773	0.783362	-0.315051	-0.24982	1.02585	-0.291092	-0.116197	0.0599965	-0.117363	-0.241056	0.499705	-0.173321	-0.119163	1.01022	-0.0254261	-0.234912	1.45361	-0.182796	-0.26557	0.831731	-0.189111	-0.186233	0.384892	-0.200186	-0.343285	0.063077	-0.182466	-0.25684	1.21127	-0.264187	-0.303414	0.864791	-0.244239	-0.268789	0.85955	-0.308004	-0.380232	1.25188	0.0035961	-0.127171	1.22784	0.0025764
444	4.42112	-0.150581	1.45653	-0.00781546	-0.328975	1.41012	-0.00628918	-0.180558	0.0937167	0.211755	-0.253597	0.993997	0.1641	-0.205812	1.61104	0.0769034	-0.239181	1.11502	0.273796	-0.304337	1.69483	0.051652	-0.24077	0.794047	0.327612	-0.199876	0.964891	0.283656	-0.117772	0.0604708	0.15148	-0.233597	0.481867	0.196011	-0.120544	1.01259	0.0368863	-0.230247	1.45756	0.170054	-0.231258	0.669442	0.204192	-0.181491	0.246959	0.22289	-0.355072	0.0659313	0.187656	-0.260237	1.29791	0.263793	-0.258974	0.866593	0.255414	-0.197197	0.873357	0.295526	-0.176436	0.0987764	-0.189036	-0.119555	1.32166	-0.125049	-0.191733	1.60293	-0.0708819	-0.242676	1.11411	-0.280238	-0.291536	1.67741	-0.0763919	-0.319334	0.78309	-0.319976	-0.245832	1.0266	-0.292598	-0.116215	0.060046	-0.117358	-0.239776	0.499751	-0.172763	-0.121146	1.01062	-0.0254824	-0.235443	1.45367	-0.18246	-0.266601	0.83166	-0.188978	-0.185027	0.385116	-0.199602	-0.343334	0.0630305	-0.182512	-0.255141	1.21161	-0.264878	-0.297729	0.864433	-0.248158	-0.262257	0.860132	-0.311432	-0.382179	1.25218	0.00369397	-0.128755	1.22772	0.00307877
